<svg xmlns="http://www.w3.org/2000/svg" id="Layer_1" data-name="Layer 1" viewBox="0 0 24 24" width="300" height="300" version="1.1" xmlns:xlink="http://www.w3.org/1999/xlink" xmlns:svgjs="http://svgjs.dev/svgjs"><g transform="matrix(1,0,0,1,0,0)"><path d="m12,0C5.383,0,0,5.383,0,12s5.383,12,12,12,12-5.383,12-12S18.617,0,12,0Zm-1,15c0,.552-.448,1-1,1s-1-.448-1-1v-6c0-.552.448-1,1-1s1,.448,1,1v6Zm4,0c0,.552-.448,1-1,1s-1-.448-1-1v-6c0-.552.448-1,1-1s1,.448,1,1v6Z" fill="#ffffffff" data-original-color="#000000ff" stroke="none"/></g></svg>