<?xml version="1.0" encoding="UTF-8"?>
<svg version="1.1" xmlns="http://www.w3.org/2000/svg" width="128" height="128">
<path d="M0 0 C3.54899648 2.8032312 6.7981569 5.80882971 10 9 C10.7115625 9.68835938 11.423125 10.37671875 12.15625 11.0859375 C24.39078286 23.74397342 28.51257847 39.58215043 28.42211914 56.7277832 C27.97142979 74.12143683 21.2100289 87.74913488 9 100 C8.31164062 100.7115625 7.62328125 101.423125 6.9140625 102.15625 C-5.74397342 114.39078286 -21.58215043 118.51257847 -38.7277832 118.42211914 C-56.12143683 117.97142979 -69.74913488 111.2100289 -82 99 C-82.7115625 98.31164062 -83.423125 97.62328125 -84.15625 96.9140625 C-96.39078286 84.25602658 -100.51257847 68.41784957 -100.42211914 51.2722168 C-99.97142979 33.87856317 -93.2100289 20.25086512 -81 8 C-80.31164062 7.2884375 -79.62328125 6.576875 -78.9140625 5.84375 C-58.17321785 -14.20316305 -23.58676134 -16.00911403 0 0 Z M-64.75 25.25 C-72.20702182 34.36413778 -76.73456172 44.53154139 -76.28125 56.46875 C-75.07425237 67.33172867 -70.60637245 77.95842254 -62 85 C-51.2629435 92.49096965 -40.46624445 95.86342631 -27.3671875 93.53125 C-16.60518344 90.69736805 -7.9053277 84.69994576 -1.875 75.375 C3.20222966 66.54219067 4.52673606 58.08602003 4 48 C2.35 47.34 0.7 46.68 -1 46 C-2.6004894 47.12214582 -2.6004894 47.12214582 -4 49 C-4.43343517 51.89248923 -4.43343517 51.89248923 -4.4375 55.125 C-5.02203841 65.06215289 -8.53464117 72.32046841 -16 79 C-24.94773626 84.99989636 -33.45550351 85.96348386 -44 85 C-51.58388687 83.22686589 -58.26391172 78.08036986 -62.57421875 71.65234375 C-67.55315671 62.87857055 -68.66040285 53.10172304 -66.3515625 43.2265625 C-62.60030745 34.08888995 -55.87912548 28.00937255 -47 24 C-39.73536631 21.57845544 -29.63547864 21.7759116 -22.625 24.9375 C-21.4010229 25.59674635 -20.18825517 26.27835235 -19 27 C-18.34 27.33 -17.68 27.66 -17 28 C-19.64 28.66 -22.28 29.32 -25 30 C-25 31.98 -25 33.96 -25 36 C-22.72926921 37.1353654 -21.45716721 37.12892412 -18.9375 37.1328125 C-18.14085937 37.13410156 -17.34421875 37.13539062 -16.5234375 37.13671875 C-15.69070312 37.13285156 -14.85796875 37.12898438 -14 37.125 C-12.75089844 37.13080078 -12.75089844 37.13080078 -11.4765625 37.13671875 C-10.67992188 37.13542969 -9.88328125 37.13414063 -9.0625 37.1328125 C-7.96615234 37.13112061 -7.96615234 37.13112061 -6.84765625 37.12939453 C-4.90433947 37.11201795 -4.90433947 37.11201795 -3 36 C-1.82167379 32.46502138 -1.81602691 29.24106929 -1.8125 25.5625 C-1.79832031 24.24378906 -1.78414063 22.92507812 -1.76953125 21.56640625 C-1.97771097 18.3449133 -2.27831234 16.66079001 -4 14 C-5.65 14.33 -7.3 14.66 -9 15 C-9.66 17.31 -10.32 19.62 -11 22 C-11.54527344 21.67386719 -12.09054688 21.34773438 -12.65234375 21.01171875 C-30.60239779 10.60989256 -48.50016637 11.95468158 -64.75 25.25 Z " fill="#FFFFFF" transform="translate(100,10)"/>
</svg>
